<mxfile host="app.diagrams.net" agent="Mozilla/5.0 (Windows NT 10.0; Win64; x64) AppleWebKit/537.36 (KHTML, like Gecko) Chrome/135.0.0.0 Safari/537.36" version="26.2.14">
  <diagram name="Page-1" id="bKEM55aSg7m3i56EgnbJ">
    <mxGraphModel dx="744" dy="503" grid="0" gridSize="10" guides="1" tooltips="1" connect="1" arrows="1" fold="1" page="1" pageScale="1" pageWidth="827" pageHeight="1169" background="light-dark(#FFFFFF,#FFFFFF)" math="0" shadow="0">
      <root>
        <mxCell id="0" />
        <mxCell id="1" parent="0" />
        <mxCell id="E4SWSjB8XkPXAVHv-QKt-3" value="" style="rounded=1;whiteSpace=wrap;html=1;fillColor=light-dark(#FFFFFF,#999999);" vertex="1" parent="1">
          <mxGeometry x="114" y="136" width="443" height="202" as="geometry" />
        </mxCell>
        <mxCell id="E4SWSjB8XkPXAVHv-QKt-1" value="&lt;font style=&quot;color: light-dark(rgb(0, 0, 0), rgb(255, 255, 255)); font-size: 23px;&quot;&gt;Functiile acestui proiect&lt;/font&gt;" style="rounded=0;whiteSpace=wrap;html=1;fillColor=light-dark(#FFFFFF,#003366);fontColor=#ffffff;strokeColor=#001DBC;" vertex="1" parent="1">
          <mxGeometry x="228" y="180" width="215" height="114" as="geometry" />
        </mxCell>
        <mxCell id="E4SWSjB8XkPXAVHv-QKt-5" value="" style="endArrow=classic;html=1;rounded=0;exitX=0.75;exitY=0;exitDx=0;exitDy=0;strokeColor=light-dark(#000000,#000000);" edge="1" parent="1">
          <mxGeometry width="50" height="50" relative="1" as="geometry">
            <mxPoint x="228" y="136" as="sourcePoint" />
            <mxPoint x="228" y="69" as="targetPoint" />
          </mxGeometry>
        </mxCell>
        <mxCell id="E4SWSjB8XkPXAVHv-QKt-6" value="" style="endArrow=classic;html=1;rounded=0;exitX=0.75;exitY=0;exitDx=0;exitDy=0;strokeColor=light-dark(#000000,#000000);" edge="1" parent="1">
          <mxGeometry width="50" height="50" relative="1" as="geometry">
            <mxPoint x="441.89" y="405" as="sourcePoint" />
            <mxPoint x="441.89" y="338" as="targetPoint" />
          </mxGeometry>
        </mxCell>
        <mxCell id="E4SWSjB8XkPXAVHv-QKt-7" value="" style="endArrow=classic;html=1;rounded=0;exitX=0.75;exitY=0;exitDx=0;exitDy=0;strokeColor=light-dark(#000000,#000000);" edge="1" parent="1">
          <mxGeometry width="50" height="50" relative="1" as="geometry">
            <mxPoint x="228" y="405" as="sourcePoint" />
            <mxPoint x="228" y="338" as="targetPoint" />
          </mxGeometry>
        </mxCell>
        <mxCell id="E4SWSjB8XkPXAVHv-QKt-8" value="" style="endArrow=classic;html=1;rounded=0;exitX=0.75;exitY=0;exitDx=0;exitDy=0;strokeColor=light-dark(#000000,#000000);" edge="1" parent="1">
          <mxGeometry width="50" height="50" relative="1" as="geometry">
            <mxPoint x="443" y="136" as="sourcePoint" />
            <mxPoint x="443" y="69" as="targetPoint" />
          </mxGeometry>
        </mxCell>
        <mxCell id="E4SWSjB8XkPXAVHv-QKt-9" value="Login" style="html=1;whiteSpace=wrap;strokeColor=none;fillColor=#0079D6;labelPosition=center;verticalLabelPosition=middle;verticalAlign=top;align=center;fontSize=12;outlineConnect=0;spacingTop=-6;fontColor=#FFFFFF;sketch=0;shape=mxgraph.sitemap.login;" vertex="1" parent="1">
          <mxGeometry x="231" y="5" width="120" height="70" as="geometry" />
        </mxCell>
        <mxCell id="E4SWSjB8XkPXAVHv-QKt-10" value="Logare si inregistrare" style="rounded=1;whiteSpace=wrap;html=1;fillColor=#dae8fc;strokeColor=#6c8ebf;" vertex="1" parent="1">
          <mxGeometry x="168" y="10" width="63" height="60" as="geometry" />
        </mxCell>
        <mxCell id="E4SWSjB8XkPXAVHv-QKt-11" value="Profile" style="html=1;whiteSpace=wrap;strokeColor=none;fillColor=#0079D6;labelPosition=center;verticalLabelPosition=middle;verticalAlign=top;align=center;fontSize=12;outlineConnect=0;spacingTop=-6;fontColor=#FFFFFF;sketch=0;shape=mxgraph.sitemap.profile;" vertex="1" parent="1">
          <mxGeometry x="458" y="3" width="120" height="70" as="geometry" />
        </mxCell>
        <mxCell id="E4SWSjB8XkPXAVHv-QKt-12" value="Editarea profilului" style="rounded=1;whiteSpace=wrap;html=1;fillColor=#dae8fc;strokeColor=#6c8ebf;" vertex="1" parent="1">
          <mxGeometry x="395" y="8" width="63" height="60" as="geometry" />
        </mxCell>
      </root>
    </mxGraphModel>
  </diagram>
</mxfile>
